<svg xmlns="http://www.w3.org/2000/svg" xmlns:xlink="http://www.w3.org/1999/xlink" version="1.1" x="0px" y="0px" width="100px" height="100px" viewBox="0 0 100 100" enable-background="new 0 0 100 100" xml:space="preserve">
<g id="Captions">
</g>
<g id="Your_Icon">
	<path d="M91.322,49.997c0-2.704,8.38-6.104,7.927-8.678c-0.469-2.649-9.513-2.977-10.415-5.45   c-0.919-2.512,5.784-8.581,4.459-10.869c-1.333-2.302-9.945,0.483-11.652-1.544c-1.712-2.036,2.525-10.034,0.489-11.741   c-2.025-1.707-9.18,3.835-11.479,2.501c-2.291-1.323-1.036-10.292-3.548-11.205c-2.468-0.899-7.28,6.753-9.928,6.289   C54.604,8.853,52.704,0,49.997,0c-2.703,0-4.599,8.853-7.172,9.301c-2.648,0.464-7.458-7.188-9.931-6.289   c-2.511,0.913-1.255,9.882-3.543,11.205c-2.305,1.334-9.452-4.208-11.476-2.501c-2.041,1.707,2.192,9.705,0.482,11.741   c-1.705,2.028-10.314-0.763-11.652,1.542c-1.323,2.285,5.377,8.36,4.46,10.872c-0.9,2.473-9.947,2.804-10.414,5.45   c-0.453,2.574,7.927,5.974,7.927,8.678c0,2.707-8.379,6.11-7.927,8.682c0.467,2.646,9.514,2.979,10.414,5.45   c0.917,2.514-5.785,8.584-4.46,10.874c1.337,2.306,9.947-0.491,11.652,1.542c1.71,2.035-2.523,10.032-0.482,11.739   c2.023,1.709,9.17-3.838,11.476-2.5c2.289,1.326,1.033,10.288,3.543,11.201c2.473,0.901,7.279-6.752,9.928-6.288   c2.577,0.452,4.473,9.303,7.176,9.303c2.708,0,4.607-8.851,7.178-9.303c2.652-0.464,7.46,7.189,9.928,6.288   c2.512-0.913,1.257-9.875,3.544-11.201c2.304-1.338,9.458,4.209,11.483,2.5c2.033-1.707-2.201-9.704-0.489-11.739   c1.707-2.031,10.319,0.764,11.652-1.542c1.325-2.29-5.378-8.364-4.459-10.875c0.902-2.474,9.946-2.804,10.415-5.449   C99.702,56.106,91.322,52.703,91.322,49.997z M80.036,49.997c0,6.224-1.894,12.005-5.136,16.801L62.874,56.572   c0.901-1.887,1.422-3.992,1.422-6.224c0-1.781-0.338-3.48-0.929-5.057l13.63-8.392C78.926,40.862,80.036,45.295,80.036,49.997z    M49.997,19.963c9.912,0,18.676,4.82,24.146,12.221L60.49,40.59c-2.651-2.897-6.45-4.728-10.687-4.728   c-0.028,0-0.056,0.003-0.083,0.003l-3.78-15.597C47.27,20.088,48.619,19.963,49.997,19.963z M40.628,21.473l3.748,15.453   c-3.773,1.529-6.747,4.603-8.156,8.434l-15.68-1.197C22.648,33.465,30.435,24.821,40.628,21.473z M19.962,49.997   c0-0.117,0.017-0.23,0.018-0.348l15.364,1.175c0.164,5.066,2.924,9.464,6.997,11.922l-5.795,14.082   C26.719,71.889,19.962,61.742,19.962,49.997z M49.997,80.037c-2.889,0-5.675-0.434-8.322-1.195l5.848-14.205   c0.745,0.118,1.504,0.197,2.281,0.197c3.778,0,7.208-1.456,9.788-3.823l11.813,10.046C65.954,76.594,58.382,80.037,49.997,80.037z    M54.143,50.349c0,2.396-1.939,4.337-4.339,4.337c-2.39,0-4.332-1.941-4.332-4.337c0-2.398,1.942-4.331,4.332-4.331   C52.203,46.018,54.143,47.951,54.143,50.349z"/>
</g>
</svg>