<svg xmlns="http://www.w3.org/2000/svg" xmlns:xlink="http://www.w3.org/1999/xlink" version="1.1" x="0px" y="0px" viewBox="0 0 52 65" enable-background="new 0 0 52 52" xml:space="preserve"><g><g><g><g><path d="M40.7244987,22.7901268c-0.405201,0-0.8143997-0.049799-1.217701-0.1504002      c-1.2969017-0.3232002-2.3886986-1.1308002-3.0772018-2.2763004c-0.6874962-1.1445999-0.8886986-2.4882984-0.5653992-3.7852001      c0.3232193-1.2958994,1.1318016-2.3876991,2.2773018-3.0761995l4.2861977-2.5751991      c1.1445007-0.6875,2.4882011-0.8886003,3.7840996-0.5654001c1.2959023,0.3231993,2.3877029,1.1317997,3.0762024,2.2774      c0.6875,1.1444998,0.8886986,2.4881992,0.5654144,3.7841005c-0.3232155,1.2968998-1.1308136,2.3886986-2.2763138,3.0771999      l-4.2862015,2.5741997C42.5028992,22.5479279,41.6209984,22.7901268,40.7244987,22.7901268z M44.9959984,12.2120266      c-0.5371017,0-1.0664024,0.1455002-1.5390015,0.4297009l-4.2861977,2.5751991      c-0.6865005,0.4121008-1.1719017,1.0683002-1.3652,1.8457012c-0.1943016,0.7772999-0.0741844,1.5839996,0.3388977,2.2714996      c0.4121017,0.6864986,1.0683022,1.1709003,1.8456993,1.3652c0.7773018,0.1942997,1.5830002,0.0732002,2.2714005-0.3397999      l4.2862015-2.5743008c0.6865005-0.4120998,1.1708984-1.0683002,1.3652-1.8457003      c0.1934166-0.7772999,0.0732994-1.5839996-0.3398018-2.2714996c-0.4120979-0.6864996-1.0683975-1.1717997-1.8456993-1.3652      C45.4852982,12.2423267,45.2401962,12.2120266,44.9959984,12.2120266z"/></g><g><rect x="7.4895902" y="30.002079" transform="matrix(0.8574038 -0.5146443 0.5146443 0.8574038 -12.1777191 18.0535297)" width="38.0001259" height="1.9999954"/></g></g><g><g><path d="M44.9930992,41.7891273c-0.8965034,0-1.7783012-0.2430992-2.565403-0.7158012l-4.2861977-2.5751991      c-1.1455002-0.6884995-1.9540825-1.780201-2.2773018-3.0760994c-0.3232994-1.2969017-0.122097-2.6407013,0.5653992-3.7852001      c0.6885033-1.1455002,1.7803001-1.9531002,3.0772018-2.2763996c1.294899-0.3242016,2.6396179-0.1220016,3.7840996,0.5654984      l4.2862015,2.5751991c1.1455002,0.6884003,1.9530983,1.780201,2.2763138,3.0761032      c0.3232841,1.2958984,0.1220856,2.639698-0.5654144,3.7841988c-0.6884995,1.1455002-1.7803001,1.9541016-3.0762024,2.277401      C45.8074989,41.7393265,45.3992958,41.7891273,44.9930992,41.7891273z M40.7205963,31.2110271      c-0.2430992,0-0.4883003,0.0293007-0.7304001,0.0898991c-0.7773972,0.1943016-1.4335976,0.6787014-1.8456993,1.3652      c-0.4130821,0.6875-0.5331993,1.4941025-0.3388977,2.2714996c0.1932983,0.7773018,0.6786995,1.4336014,1.3652,1.8456993      l4.2861977,2.5752029c0.6875,0.4139977,1.4951019,0.5331993,2.2705002,0.3387985      c0.7773018-0.1932983,1.4336014-0.6786995,1.8456993-1.3652c0.4131012-0.6875,0.5332184-1.4940987,0.3398018-2.2714996      c-0.1943016-0.7773018-0.6786995-1.4325981-1.3652-1.8446999l-4.2862015-2.575201      C41.7879982,31.3565273,41.2586975,31.2110271,40.7205963,31.2110271z"/></g><g><rect x="25.4896336" y="1.998077" transform="matrix(0.5150063 -0.8571864 0.8571864 0.5150063 -5.1520157 32.8905411)" width="2.0000381" height="38.0001488"/></g></g></g><g><rect x="1.9959987" y="25.0001278" width="3" height="2"/></g><g><rect x="7.9959984" y="25.0001278" width="3" height="2"/></g><g><rect x="13.9959984" y="25.0001278" width="3" height="2"/></g><g><rect x="19.9959984" y="25.0001278" width="3" height="2"/></g><g><rect x="25.9959984" y="25.0001278" width="3" height="2"/></g><g><rect x="31.9959984" y="25.0001278" width="3" height="2"/></g></g></svg>